# xmcd CD database file
#
# Track frame offsets:
#	150
#	16463
#	29836
#	44301
#
# Disc length: 755 seconds
#
# Revision: 0
# Processed by: cddbd v1.5.2PL0 Copyright (c) Steve Scherf et al.
# Submitted via: CDex 1.51
#
DISCID=2f02f104
DTITLE=The Civil Wars - Poison and Wine-EP
DYEAR=1900
DGENRE=Country
TTITLE0=Poison and Winw
TTITLE1=Go
TTITLE2=Pressing Flowers
TTITLE3=Tip of my Tongue
EXTD=
EXTT0=
EXTT1=
EXTT2=
EXTT3=
PLAYORDER=
